<svg width="51" height="57" viewBox="0 0 51 57" fill="none" xmlns="http://www.w3.org/2000/svg">
<g clip-path="url(#clip0)">
<path d="M0.719005 4.58035C0.566325 4.58021 0.419813 4.63055 0.311604 4.72034C0.203396 4.81013 0.142326 4.93202 0.141796 5.05929L3.66167e-07 56.4236C-0.000171583 56.5509 0.060222 56.673 0.167934 56.7632C0.275646 56.8534 0.421878 56.9043 0.574557 56.9048L50.2157 57C50.3684 57.0001 50.5149 56.9498 50.6231 56.86C50.7313 56.7702 50.7924 56.6483 50.7929 56.5211L50.9347 5.15672C50.9348 5.02945 50.8745 4.90732 50.7667 4.81712C50.659 4.72692 50.5128 4.67602 50.3601 4.67558L0.719005 4.58035Z" fill="white"/>
<path d="M2.74221 6.61606C2.59076 6.61592 2.44543 6.66551 2.3381 6.75395C2.23076 6.84239 2.17018 6.96247 2.16966 7.08783L2.03741 54.658C2.03724 54.7833 2.09715 54.9036 2.204 54.9925C2.31084 55.0813 2.45589 55.1315 2.60734 55.1319L48.1925 55.2187C48.344 55.2189 48.4893 55.1693 48.5966 55.0808C48.704 54.9924 48.7646 54.8723 48.7651 54.747L48.8973 7.17685C48.8975 7.05148 48.8376 6.93118 48.7307 6.84233C48.6239 6.75348 48.4788 6.70333 48.3274 6.7029L2.74221 6.61606Z" fill="black"/>
<path d="M42.179 27.4822L8.49784 27.3943C8.38497 27.3941 8.27324 27.3686 8.16904 27.3195C8.06485 27.2703 7.97021 27.1983 7.89056 27.1076C7.81091 27.017 7.7478 26.9094 7.70483 26.7911C7.66186 26.6728 7.63988 26.5461 7.64014 26.4181C7.6404 26.2902 7.66289 26.1636 7.70634 26.0455C7.74979 25.9274 7.81334 25.8202 7.89336 25.7299C7.97338 25.6397 8.0683 25.5682 8.1727 25.5196C8.2771 25.4709 8.38892 25.4461 8.5018 25.4464L42.183 25.5343C42.4108 25.535 42.629 25.6383 42.7896 25.8213C42.9503 26.0044 43.0403 26.2523 43.0397 26.5105C43.0392 26.7687 42.9482 27.0161 42.7868 27.1983C42.6254 27.3805 42.4068 27.4826 42.179 27.4822Z" fill="white"/>
<path d="M42.4753 13.9955L20.4251 13.9512C20.1144 13.9506 19.8634 13.6182 19.8645 13.2088C19.8656 12.7995 20.1183 12.4681 20.429 12.4688L42.4792 12.5131C42.7899 12.5137 43.0409 12.8461 43.0398 13.2555C43.0387 13.6648 42.786 13.9962 42.4753 13.9955Z" fill="white"/>
<path d="M42.4753 18.067L20.4251 18.0152C20.1144 18.0145 19.8634 17.6267 19.8645 17.1491C19.8656 16.6716 20.1183 16.285 20.429 16.2857L42.4792 16.3375C42.7899 16.3382 43.0409 16.7259 43.0398 17.2035C43.0387 17.6811 42.786 18.0677 42.4753 18.067Z" fill="white"/>
<path d="M42.179 32.0625L8.49693 31.9856C8.26913 31.985 8.05091 31.8946 7.89024 31.7345C7.72958 31.5743 7.63961 31.3574 7.64014 31.1315C7.64066 30.9055 7.73163 30.6891 7.89304 30.5296C8.05445 30.3702 8.27308 30.2809 8.50089 30.2813L42.1829 30.3581C42.4108 30.3588 42.629 30.4491 42.7896 30.6093C42.9503 30.7694 43.0403 30.9863 43.0397 31.2123C43.0392 31.4382 42.9483 31.6547 42.7868 31.8141C42.6254 31.9736 42.4068 32.0629 42.179 32.0625Z" fill="white"/>
<path d="M42.1781 36.6429L8.49782 36.577C8.38495 36.5768 8.27323 36.5577 8.16903 36.5209C8.06483 36.484 7.97021 36.43 7.89056 36.362C7.81091 36.294 7.7478 36.2133 7.70483 36.1246C7.66186 36.0359 7.63988 35.9408 7.64014 35.8449C7.6404 35.7489 7.6629 35.6539 7.70635 35.5654C7.74979 35.4768 7.81334 35.3964 7.89336 35.3287C7.97337 35.261 8.06829 35.2074 8.17268 35.1709C8.27708 35.1345 8.38891 35.1158 8.50178 35.1161L42.1821 35.182C42.2949 35.1822 42.4066 35.2012 42.5108 35.2381C42.615 35.275 42.7097 35.329 42.7893 35.397C42.869 35.465 42.9321 35.5456 42.975 35.6344C43.018 35.7231 43.04 35.8182 43.0397 35.9141C43.0395 36.0101 43.017 36.105 42.9735 36.1936C42.9301 36.2822 42.8665 36.3626 42.7865 36.4303C42.7065 36.4979 42.6116 36.5515 42.5072 36.588C42.4028 36.6245 42.291 36.6431 42.1781 36.6429Z" fill="white"/>
<path d="M42.179 41.4777L8.49739 41.3898C8.38455 41.3895 8.27287 41.364 8.16873 41.3148C8.06458 41.2656 7.97 41.1936 7.8904 41.103C7.8108 41.0123 7.74773 40.9048 7.70479 40.7865C7.66185 40.6683 7.63988 40.5415 7.64014 40.4136C7.6404 40.2857 7.66288 40.1592 7.7063 40.0411C7.74972 39.9231 7.81323 39.8159 7.8932 39.7256C7.97317 39.6354 8.06803 39.5639 8.17238 39.5152C8.27672 39.4666 8.38851 39.4417 8.50134 39.442L42.183 39.5298C42.4108 39.5305 42.629 39.6338 42.7896 39.8168C42.9503 39.9999 43.0403 40.2478 43.0397 40.506C43.0392 40.7642 42.9482 41.0116 42.7868 41.1938C42.6254 41.376 42.4068 41.4781 42.179 41.4777Z" fill="white"/>
<path d="M42.179 46.0581L8.49693 45.9702C8.26913 45.9695 8.05091 45.8662 7.89024 45.6832C7.72958 45.5001 7.63961 45.2522 7.64014 44.994C7.64066 44.7358 7.73163 44.4884 7.89304 44.3062C8.05445 44.124 8.27308 44.0219 8.50089 44.0223L42.1829 44.1102C42.4108 44.1109 42.629 44.2142 42.7896 44.3972C42.9503 44.5803 43.0403 44.8282 43.0397 45.0864C43.0392 45.3446 42.9483 45.592 42.7868 45.7742C42.6254 45.9564 42.4068 46.0585 42.179 46.0581Z" fill="white"/>
<path d="M42.1781 50.3839L8.49736 50.318C8.38453 50.3178 8.27286 50.2987 8.16871 50.2618C8.06457 50.2249 7.97 50.1709 7.89039 50.1029C7.72963 49.9656 7.63961 49.7796 7.64014 49.5859C7.64066 49.3922 7.73169 49.2066 7.89319 49.0699C8.05469 48.9332 8.27344 48.8567 8.50132 48.8571L42.182 48.923C42.2949 48.9232 42.4066 48.9423 42.5108 48.9792C42.615 49.0161 42.7097 49.07 42.7893 49.138C42.869 49.206 42.9321 49.2867 42.975 49.3754C43.018 49.4642 43.04 49.5592 43.0397 49.6552C43.0395 49.7511 43.017 49.8461 42.9735 49.9347C42.9301 50.0232 42.8665 50.1036 42.7865 50.1713C42.7065 50.239 42.6116 50.2926 42.5072 50.3291C42.4028 50.3656 42.291 50.3842 42.1781 50.3839Z" fill="white"/>
<path d="M12.3516 19.3393C14.9537 19.3393 17.0631 17.5165 17.0631 15.2679C17.0631 13.0193 14.9537 11.1964 12.3516 11.1964C9.74953 11.1964 7.64014 13.0193 7.64014 15.2679C7.64014 17.5165 9.74953 19.3393 12.3516 19.3393Z" fill="white"/>
</g>
<defs>
<clipPath id="clip0">
<rect width="50.9347" height="57" fill="white"/>
</clipPath>
</defs>
</svg>
