<svg width="81" height="55" viewBox="0 0 81 55" fill="none" xmlns="http://www.w3.org/2000/svg">
<path d="M0.0375187 31.2877C0.481266 23.4416 3.69718 16.0081 9.11187 10.3125C14.5266 4.61693 21.7881 1.02952 29.6018 0.189876C37.4155 -0.649769 45.2734 1.31293 51.7746 5.72804C58.2757 10.1432 62.9976 16.7237 65.0982 24.2964C65.4999 24.282 65.9013 24.2659 66.3065 24.2659C67.6891 24.279 69.0607 24.5124 70.3698 24.9571C86.8643 30.3734 82.5209 54.9999 65.1599 54.9999H22.493C19.4754 55.0084 16.4871 54.408 13.707 53.2344C10.9269 52.0609 8.41215 50.3385 6.31338 48.1702C4.21461 46.002 2.57493 43.4325 1.49253 40.6157C0.41013 37.7988 -0.0927222 34.7926 0.0140443 31.7768C0.0206901 31.614 0.0284955 31.451 0.0375187 31.2877Z" fill="white"/>
<path d="M40.1629 28.8303V13H30.1503V28.8303H22.1566L28.6564 38.4156L35.1571 48L41.6569 38.4156L48.1566 28.8303H40.1629Z" fill="#D33033"/>
</svg>
