<svg width="110" height="131" viewBox="0 0 110 131" fill="none" xmlns="http://www.w3.org/2000/svg">
<g clip-path="url(#clip0)">
<path d="M1.55186 10.5268C1.22233 10.5265 0.906102 10.6422 0.67255 10.8485C0.438998 11.0549 0.307189 11.335 0.306044 11.6275L7.90315e-07 129.675C-0.000370335 129.968 0.12998 130.249 0.36246 130.456C0.594939 130.663 0.91056 130.78 1.24009 130.781L108.383 131C108.712 131 109.029 130.885 109.262 130.678C109.496 130.472 109.627 130.192 109.629 129.899L109.935 11.8514C109.935 11.5589 109.805 11.2783 109.572 11.071C109.34 10.8637 109.024 10.7467 108.695 10.7456L1.55186 10.5268Z" fill="#295497"/>
<path d="M5.91854 15.2054C5.59166 15.2051 5.27798 15.319 5.04631 15.5223C4.81464 15.7256 4.6839 16.0015 4.68276 16.2896L4.39734 125.617C4.39697 125.906 4.52627 126.182 4.75688 126.386C4.98748 126.59 5.30056 126.706 5.62744 126.707L104.016 126.906C104.343 126.907 104.657 126.793 104.888 126.589C105.12 126.386 105.251 126.11 105.252 125.822L105.537 16.4942C105.538 16.2061 105.408 15.9296 105.178 15.7254C104.947 15.5212 104.634 15.406 104.307 15.405L5.91854 15.2054Z" fill="white"/>
<path d="M91.0371 63.1607L18.3415 62.9588C18.0978 62.9582 17.8567 62.8998 17.6318 62.7868C17.4069 62.6737 17.2027 62.5083 17.0307 62.3C16.8588 62.0916 16.7226 61.8444 16.6299 61.5725C16.5371 61.3006 16.4897 61.0093 16.4902 60.7153C16.4908 60.4212 16.5394 60.1302 16.6331 59.8588C16.7269 59.5874 16.8641 59.341 17.0368 59.1336C17.2095 58.9263 17.4144 58.762 17.6397 58.6502C17.865 58.5384 18.1064 58.4813 18.35 58.4821L91.0456 58.684C91.5373 58.6857 92.0083 58.923 92.355 59.3437C92.7018 59.7644 92.896 60.3341 92.8948 60.9275C92.8937 61.5209 92.6974 62.0895 92.349 62.5083C92.0006 62.9271 91.5288 63.1617 91.0371 63.1607V63.1607Z" fill="#295497"/>
<path d="M91.6765 32.1652L44.0844 32.0632C43.4139 32.0618 42.8722 31.2979 42.8745 30.3571C42.8768 29.4163 43.4223 28.6548 44.0928 28.6563L91.6849 28.7582C92.3555 28.7596 92.8971 29.5235 92.8948 30.4643C92.8925 31.4051 92.3471 32.1666 91.6765 32.1652Z" fill="#295497"/>
<path d="M91.6765 41.5223L44.0844 41.4034C43.4139 41.4017 42.8722 40.5106 42.8745 39.413C42.8768 38.3154 43.4223 37.4269 44.0928 37.4286L91.6849 37.5475C92.3555 37.5492 92.8971 38.4404 92.8948 39.538C92.8925 40.6356 92.3471 41.524 91.6765 41.5223Z" fill="#295497"/>
<path d="M91.037 73.6875L18.3395 73.5108C17.8478 73.5094 17.3768 73.3017 17.0301 72.9336C16.6833 72.5655 16.4891 72.067 16.4902 71.5478C16.4914 71.0285 16.6877 70.531 17.0361 70.1646C17.3845 69.7982 17.8564 69.5928 18.348 69.5938L91.0456 69.7704C91.5373 69.7719 92.0083 69.9795 92.355 70.3476C92.7018 70.7157 92.896 71.2142 92.8948 71.7335C92.8937 72.2527 92.6974 72.7502 92.349 73.1167C92.0006 73.4831 91.5287 73.6884 91.037 73.6875V73.6875Z" fill="#295497"/>
<path d="M91.0351 84.2142L18.3414 84.0628C18.0978 84.0624 17.8567 84.0186 17.6318 83.9338C17.4069 83.849 17.2026 83.725 17.0307 83.5687C16.8588 83.4124 16.7226 83.2271 16.6299 83.0231C16.5371 82.8192 16.4897 82.6007 16.4902 82.3802C16.4908 82.1597 16.5394 81.9414 16.6331 81.7379C16.7269 81.5343 16.8641 81.3495 17.0368 81.194C17.2095 81.0384 17.4143 80.9152 17.6397 80.8314C17.865 80.7475 18.1063 80.7047 18.35 80.7053L91.0437 80.8568C91.2873 80.8572 91.5284 80.901 91.7533 80.9858C91.9782 81.0705 92.1824 81.1946 92.3544 81.3509C92.5263 81.5071 92.6625 81.6925 92.7552 81.8964C92.848 82.1004 92.8954 82.3188 92.8948 82.5394C92.8943 82.7599 92.8457 82.9782 92.7519 83.1817C92.6582 83.3853 92.521 83.5701 92.3483 83.7256C92.1756 83.8812 91.9707 84.0044 91.7454 84.0882C91.5201 84.172 91.2787 84.2149 91.0351 84.2142Z" fill="#295497"/>
<path d="M91.0371 95.3259L18.3405 95.124C18.0969 95.1233 17.8559 95.0648 17.6311 94.9517C17.4063 94.8385 17.2022 94.6731 17.0304 94.4648C16.8586 94.2565 16.7225 94.0093 16.6298 93.7375C16.5371 93.4657 16.4897 93.1745 16.4902 92.8805C16.4908 92.5866 16.5393 92.2957 16.633 92.0243C16.7268 91.753 16.8638 91.5067 17.0364 91.2993C17.209 91.0919 17.4138 90.9276 17.639 90.8158C17.8642 90.7039 18.1055 90.6467 18.349 90.6473L91.0456 90.8493C91.5373 90.851 92.0083 91.0882 92.355 91.5089C92.7018 91.9296 92.896 92.4993 92.8948 93.0927C92.8937 93.6862 92.6974 94.2548 92.349 94.6735C92.0006 95.0923 91.5287 95.327 91.0371 95.3259V95.3259Z" fill="#295497"/>
<path d="M91.037 105.853L18.3395 105.651C17.8478 105.649 17.3768 105.412 17.0301 104.991C16.6833 104.57 16.4891 104.001 16.4902 103.407C16.4914 102.814 16.6877 102.245 17.0361 101.826C17.3845 101.408 17.8564 101.173 18.348 101.174L91.0456 101.376C91.5373 101.378 92.0083 101.615 92.355 102.036C92.7018 102.456 92.896 103.026 92.8948 103.619C92.8937 104.213 92.6974 104.782 92.349 105.2C92.0006 105.619 91.5287 105.854 91.037 105.853Z" fill="#295497"/>
<path d="M91.0351 115.795L18.3404 115.643C18.0969 115.643 17.8559 115.599 17.6311 115.514C17.4063 115.429 17.2022 115.305 17.0304 115.149C16.6834 114.833 16.4891 114.406 16.4902 113.961C16.4914 113.515 16.6878 113.089 17.0364 112.775C17.385 112.461 17.8571 112.285 18.349 112.286L91.0436 112.437C91.2873 112.438 91.5284 112.481 91.7533 112.566C91.9782 112.651 92.1824 112.775 92.3543 112.931C92.5263 113.088 92.6625 113.273 92.7552 113.477C92.848 113.681 92.8954 113.899 92.8948 114.12C92.8943 114.34 92.8457 114.559 92.7519 114.762C92.6582 114.966 92.521 115.15 92.3483 115.306C92.1756 115.462 91.9707 115.585 91.7454 115.669C91.5201 115.752 91.2787 115.795 91.0351 115.795Z" fill="#295497"/>
<path d="M26.6592 44.4464C32.2754 44.4464 36.8282 40.2571 36.8282 35.0893C36.8282 29.9215 32.2754 25.7321 26.6592 25.7321C21.043 25.7321 16.4902 29.9215 16.4902 35.0893C16.4902 40.2571 21.043 44.4464 26.6592 44.4464Z" fill="#0569FF" fill-opacity="0.58"/>
<path d="M82.9995 32.237L82.9992 11.7564C83.0511 8.69843 81.6955 5.74682 79.228 3.54509C76.7606 1.34335 73.3813 0.0700519 69.8269 0.00280487C66.2726 -0.0644422 62.8315 1.07981 60.2538 3.1861C57.6762 5.29238 56.1711 8.18987 56.0667 11.2468H59.0312C59.1365 8.91178 60.2878 6.70228 62.2441 5.08099C64.2005 3.4597 66.8101 2.55235 69.5266 2.54892C69.5778 2.54892 69.6297 2.54929 69.681 2.54992C72.47 2.58839 75.1273 3.57769 77.069 5.30049C79.0107 7.0233 80.0779 9.33868 80.0363 11.738V32.2477C80.0369 32.2999 80.0369 32.3521 80.0363 32.3995C80.0117 33.9938 79.2589 35.5157 77.9405 36.6363C76.6221 37.757 74.8441 38.3864 72.9907 38.3885C72.9617 38.3885 72.9328 38.3884 72.9038 38.3881C71.0329 38.3659 69.2487 37.7057 67.9434 36.5524C66.6381 35.3992 65.9184 33.8473 65.9425 32.2378L65.9588 11.8952C65.9735 11.0955 66.3524 10.3327 67.0139 9.77069C67.6755 9.20871 68.5669 8.89242 69.4967 8.88979C70.4264 8.88717 71.3203 9.19842 71.9861 9.75665C72.652 10.3149 73.0367 11.0755 73.0575 11.8751V27.4097C73.0575 27.7478 73.2136 28.0719 73.4914 28.311C73.7693 28.55 74.1461 28.6843 74.5391 28.6843C74.932 28.6843 75.3089 28.55 75.5867 28.311C75.8646 28.0719 76.0207 27.7478 76.0207 27.4097L76.0204 11.855C75.9934 10.3829 75.2939 8.97903 74.0732 7.94709C72.8524 6.91516 71.2085 6.33805 69.497 6.34059C67.7855 6.34313 66.1439 6.9251 64.9273 7.96064C63.7107 8.99619 63.0168 10.4021 62.9957 11.8743L62.9795 32.2215C62.9503 34.5045 63.975 36.7042 65.8288 38.3381C67.6826 39.972 70.2142 40.9066 72.868 40.9369C72.9094 40.9374 72.9499 40.9375 72.9913 40.9375C75.6248 40.934 78.1509 40.0392 80.0237 38.4465C81.8964 36.8537 82.9654 34.691 82.9995 32.4258C83.0001 32.3593 83.0001 32.2927 82.9995 32.237Z" fill="#295497" fill-opacity="0.49"/>
</g>
<defs>
<clipPath id="clip0">
<rect width="109.935" height="131" fill="white"/>
</clipPath>
</defs>
</svg>
